<?xml version="1.0" encoding="utf-8" standalone="no"?>
<!DOCTYPE svg PUBLIC "-//W3C//DTD SVG 1.1//EN"
  "http://www.w3.org/Graphics/SVG/1.1/DTD/svg11.dtd">
<svg xmlns:xlink="http://www.w3.org/1999/xlink" width="349.2pt" height="47.88pt" viewBox="0 0 349.2 47.88" xmlns="http://www.w3.org/2000/svg" version="1.1">
 <metadata>
  <rdf:RDF xmlns:dc="http://purl.org/dc/elements/1.1/" xmlns:cc="http://creativecommons.org/ns#" xmlns:rdf="http://www.w3.org/1999/02/22-rdf-syntax-ns#">
   <cc:Work>
    <dc:type rdf:resource="http://purl.org/dc/dcmitype/StillImage"/>
    <dc:date>2026-04-14T07:13:03.759065</dc:date>
    <dc:format>image/svg+xml</dc:format>
    <dc:creator>
     <cc:Agent>
      <dc:title>Matplotlib v3.10.8, https://matplotlib.org/</dc:title>
     </cc:Agent>
    </dc:creator>
   </cc:Work>
  </rdf:RDF>
 </metadata>
 <defs>
  <style type="text/css">*{stroke-linejoin: round; stroke-linecap: butt}</style>
 </defs>
 <g id="figure_1">
  <g id="patch_1">
   <path d="M 0 47.88 
L 349.2 47.88 
L 349.2 0 
L 0 0 
L 0 47.88 
z
" style="fill: none"/>
  </g>
  <g id="axes_1">
   <g id="PolyCollection_1">
    <path d="M 7.2 40.68 
L 10.581818 40.68 
L 10.581818 40.68 
L 7.2 40.68 
L 7.2 40.68 
z
" clip-path="url(#p2ab6dfa458)" style="fill: none; stroke: #000000; stroke-width: 0.3"/>
    <path d="M 10.581818 40.68 
L 13.963636 40.68 
L 13.963636 40.68 
L 10.581818 40.68 
L 10.581818 40.68 
z
" clip-path="url(#p2ab6dfa458)" style="fill: none; stroke: #000000; stroke-width: 0.3"/>
    <path d="M 13.963636 40.68 
L 17.345455 40.68 
L 17.345455 40.68 
L 13.963636 40.68 
L 13.963636 40.68 
z
" clip-path="url(#p2ab6dfa458)" style="fill: none; stroke: #000000; stroke-width: 0.3"/>
    <path d="M 17.345455 40.68 
L 20.727273 40.68 
L 20.727273 40.68 
L 17.345455 40.68 
L 17.345455 40.68 
z
" clip-path="url(#p2ab6dfa458)" style="fill: none; stroke: #000000; stroke-width: 0.3"/>
    <path d="M 20.727273 40.68 
L 24.109091 40.68 
L 24.109091 40.68 
L 20.727273 40.68 
L 20.727273 40.68 
z
" clip-path="url(#p2ab6dfa458)" style="fill: none; stroke: #000000; stroke-width: 0.3"/>
    <path d="M 24.109091 40.68 
L 27.490909 40.68 
L 27.490909 40.68 
L 24.109091 40.68 
L 24.109091 40.68 
z
" clip-path="url(#p2ab6dfa458)" style="fill: none; stroke: #000000; stroke-width: 0.3"/>
    <path d="M 27.490909 40.68 
L 30.872727 40.68 
L 30.872727 40.68 
L 27.490909 40.68 
L 27.490909 40.68 
z
" clip-path="url(#p2ab6dfa458)" style="fill: none; stroke: #000000; stroke-width: 0.3"/>
    <path d="M 30.872727 40.68 
L 34.254545 40.68 
L 34.254545 40.68 
L 30.872727 40.68 
L 30.872727 40.68 
z
" clip-path="url(#p2ab6dfa458)" style="fill: none; stroke: #000000; stroke-width: 0.3"/>
    <path d="M 34.254545 40.68 
L 37.636364 40.68 
L 37.636364 40.68 
L 34.254545 40.68 
L 34.254545 40.68 
z
" clip-path="url(#p2ab6dfa458)" style="fill: none; stroke: #000000; stroke-width: 0.3"/>
    <path d="M 37.636364 40.68 
L 41.018182 40.68 
L 41.018182 40.68 
L 37.636364 40.68 
L 37.636364 40.68 
z
" clip-path="url(#p2ab6dfa458)" style="fill: none; stroke: #000000; stroke-width: 0.3"/>
    <path d="M 41.018182 40.68 
L 44.4 40.68 
L 44.4 40.68 
L 41.018182 40.68 
L 41.018182 40.68 
z
" clip-path="url(#p2ab6dfa458)" style="fill: none; stroke: #000000; stroke-width: 0.3"/>
    <path d="M 44.4 40.68 
L 47.781818 40.68 
L 47.781818 40.68 
L 44.4 40.68 
L 44.4 40.68 
z
" clip-path="url(#p2ab6dfa458)" style="fill: none; stroke: #000000; stroke-width: 0.3"/>
    <path d="M 47.781818 40.68 
L 51.163636 40.68 
L 51.163636 40.68 
L 47.781818 40.68 
L 47.781818 40.68 
z
" clip-path="url(#p2ab6dfa458)" style="fill: none; stroke: #000000; stroke-width: 0.3"/>
    <path d="M 51.163636 40.68 
L 54.545455 40.68 
L 54.545455 40.68 
L 51.163636 40.68 
L 51.163636 40.68 
z
" clip-path="url(#p2ab6dfa458)" style="fill: none; stroke: #000000; stroke-width: 0.3"/>
    <path d="M 54.545455 40.68 
L 57.927273 40.68 
L 57.927273 40.68 
L 54.545455 40.68 
L 54.545455 40.68 
z
" clip-path="url(#p2ab6dfa458)" style="fill: none; stroke: #000000; stroke-width: 0.3"/>
    <path d="M 57.927273 40.68 
L 61.309091 40.68 
L 61.309091 40.68 
L 57.927273 40.68 
L 57.927273 40.68 
z
" clip-path="url(#p2ab6dfa458)" style="fill: none; stroke: #000000; stroke-width: 0.3"/>
    <path d="M 61.309091 40.68 
L 64.690909 40.68 
L 64.690909 40.68 
L 61.309091 40.68 
L 61.309091 40.68 
z
" clip-path="url(#p2ab6dfa458)" style="fill: none; stroke: #000000; stroke-width: 0.3"/>
    <path d="M 64.690909 40.68 
L 68.072727 40.68 
L 68.072727 40.68 
L 64.690909 40.68 
L 64.690909 40.68 
z
" clip-path="url(#p2ab6dfa458)" style="fill: none; stroke: #000000; stroke-width: 0.3"/>
    <path d="M 68.072727 40.68 
L 71.454545 40.68 
L 71.454545 40.68 
L 68.072727 40.68 
L 68.072727 40.68 
z
" clip-path="url(#p2ab6dfa458)" style="fill: none; stroke: #000000; stroke-width: 0.3"/>
    <path d="M 71.454545 40.68 
L 74.836364 40.68 
L 74.836364 40.68 
L 71.454545 40.68 
L 71.454545 40.68 
z
" clip-path="url(#p2ab6dfa458)" style="fill: none; stroke: #000000; stroke-width: 0.3"/>
    <path d="M 74.836364 40.68 
L 78.218182 40.68 
L 78.218182 40.68 
L 74.836364 40.68 
L 74.836364 40.68 
z
" clip-path="url(#p2ab6dfa458)" style="fill: none; stroke: #000000; stroke-width: 0.3"/>
    <path d="M 78.218182 40.68 
L 81.6 40.68 
L 81.6 40.68 
L 78.218182 40.68 
L 78.218182 40.68 
z
" clip-path="url(#p2ab6dfa458)" style="fill: none; stroke: #000000; stroke-width: 0.3"/>
    <path d="M 81.6 40.68 
L 84.981818 40.68 
L 84.981818 40.68 
L 81.6 40.68 
L 81.6 40.68 
z
" clip-path="url(#p2ab6dfa458)" style="fill: none; stroke: #000000; stroke-width: 0.3"/>
    <path d="M 84.981818 40.68 
L 88.363636 40.68 
L 88.363636 40.68 
L 84.981818 40.68 
L 84.981818 40.68 
z
" clip-path="url(#p2ab6dfa458)" style="fill: none; stroke: #000000; stroke-width: 0.3"/>
    <path d="M 88.363636 40.68 
L 91.745455 40.68 
L 91.745455 40.68 
L 88.363636 40.68 
L 88.363636 40.68 
z
" clip-path="url(#p2ab6dfa458)" style="fill: none; stroke: #000000; stroke-width: 0.3"/>
    <path d="M 91.745455 40.68 
L 95.127273 40.68 
L 95.127273 40.68 
L 91.745455 40.68 
L 91.745455 40.68 
z
" clip-path="url(#p2ab6dfa458)" style="fill: none; stroke: #000000; stroke-width: 0.3"/>
    <path d="M 95.127273 40.68 
L 98.509091 40.68 
L 98.509091 40.68 
L 95.127273 40.68 
L 95.127273 40.68 
z
" clip-path="url(#p2ab6dfa458)" style="fill: none; stroke: #000000; stroke-width: 0.3"/>
    <path d="M 98.509091 40.68 
L 101.890909 40.68 
L 101.890909 40.68 
L 98.509091 40.68 
L 98.509091 40.68 
z
" clip-path="url(#p2ab6dfa458)" style="fill: none; stroke: #000000; stroke-width: 0.3"/>
    <path d="M 101.890909 40.68 
L 105.272727 40.68 
L 105.272727 40.68 
L 101.890909 40.68 
L 101.890909 40.68 
z
" clip-path="url(#p2ab6dfa458)" style="fill: none; stroke: #000000; stroke-width: 0.3"/>
    <path d="M 105.272727 40.68 
L 108.654545 40.68 
L 108.654545 40.68 
L 105.272727 40.68 
L 105.272727 40.68 
z
" clip-path="url(#p2ab6dfa458)" style="fill: none; stroke: #000000; stroke-width: 0.3"/>
    <path d="M 108.654545 40.68 
L 112.036364 40.68 
L 112.036364 40.68 
L 108.654545 40.68 
L 108.654545 40.68 
z
" clip-path="url(#p2ab6dfa458)" style="fill: none; stroke: #000000; stroke-width: 0.3"/>
    <path d="M 112.036364 40.68 
L 115.418182 40.68 
L 115.418182 40.68 
L 112.036364 40.68 
L 112.036364 40.68 
z
" clip-path="url(#p2ab6dfa458)" style="fill: none; stroke: #000000; stroke-width: 0.3"/>
    <path d="M 115.418182 40.68 
L 118.8 40.68 
L 118.8 40.68 
L 115.418182 40.68 
L 115.418182 40.68 
z
" clip-path="url(#p2ab6dfa458)" style="fill: none; stroke: #000000; stroke-width: 0.3"/>
    <path d="M 118.8 40.68 
L 122.181818 40.68 
L 122.181818 40.68 
L 118.8 40.68 
L 118.8 40.68 
z
" clip-path="url(#p2ab6dfa458)" style="fill: none; stroke: #000000; stroke-width: 0.3"/>
    <path d="M 122.181818 40.68 
L 125.563636 40.68 
L 125.563636 40.68 
L 122.181818 40.68 
L 122.181818 40.68 
z
" clip-path="url(#p2ab6dfa458)" style="fill: none; stroke: #000000; stroke-width: 0.3"/>
    <path d="M 125.563636 40.68 
L 128.945455 40.68 
L 128.945455 40.68 
L 125.563636 40.68 
L 125.563636 40.68 
z
" clip-path="url(#p2ab6dfa458)" style="fill: none; stroke: #000000; stroke-width: 0.3"/>
    <path d="M 128.945455 40.68 
L 132.327273 40.68 
L 132.327273 40.68 
L 128.945455 40.68 
L 128.945455 40.68 
z
" clip-path="url(#p2ab6dfa458)" style="fill: none; stroke: #000000; stroke-width: 0.3"/>
    <path d="M 132.327273 40.68 
L 135.709091 40.68 
L 135.709091 40.68 
L 132.327273 40.68 
L 132.327273 40.68 
z
" clip-path="url(#p2ab6dfa458)" style="fill: none; stroke: #000000; stroke-width: 0.3"/>
    <path d="M 135.709091 40.68 
L 139.090909 40.68 
L 139.090909 40.68 
L 135.709091 40.68 
L 135.709091 40.68 
z
" clip-path="url(#p2ab6dfa458)" style="fill: none; stroke: #000000; stroke-width: 0.3"/>
    <path d="M 139.090909 40.68 
L 142.472727 40.68 
L 142.472727 40.68 
L 139.090909 40.68 
L 139.090909 40.68 
z
" clip-path="url(#p2ab6dfa458)" style="fill: none; stroke: #000000; stroke-width: 0.3"/>
    <path d="M 142.472727 40.68 
L 145.854545 40.68 
L 145.854545 40.68 
L 142.472727 40.68 
L 142.472727 40.68 
z
" clip-path="url(#p2ab6dfa458)" style="fill: none; stroke: #000000; stroke-width: 0.3"/>
    <path d="M 145.854545 40.68 
L 149.236364 40.68 
L 149.236364 40.68 
L 145.854545 40.68 
L 145.854545 40.68 
z
" clip-path="url(#p2ab6dfa458)" style="fill: none; stroke: #000000; stroke-width: 0.3"/>
    <path d="M 149.236364 40.68 
L 152.618182 40.68 
L 152.618182 40.68 
L 149.236364 40.68 
L 149.236364 40.68 
z
" clip-path="url(#p2ab6dfa458)" style="fill: none; stroke: #000000; stroke-width: 0.3"/>
    <path d="M 152.618182 40.68 
L 156 40.68 
L 156 40.68 
L 152.618182 40.68 
L 152.618182 40.68 
z
" clip-path="url(#p2ab6dfa458)" style="fill: none; stroke: #000000; stroke-width: 0.3"/>
    <path d="M 156 40.68 
L 159.381818 40.68 
L 159.381818 40.68 
L 156 40.68 
L 156 40.68 
z
" clip-path="url(#p2ab6dfa458)" style="fill: none; stroke: #000000; stroke-width: 0.3"/>
    <path d="M 159.381818 40.68 
L 162.763636 40.68 
L 162.763636 40.68 
L 159.381818 40.68 
L 159.381818 40.68 
z
" clip-path="url(#p2ab6dfa458)" style="fill: none; stroke: #000000; stroke-width: 0.3"/>
    <path d="M 162.763636 40.68 
L 166.145455 40.68 
L 166.145455 40.68 
L 162.763636 40.68 
L 162.763636 40.68 
z
" clip-path="url(#p2ab6dfa458)" style="fill: none; stroke: #000000; stroke-width: 0.3"/>
    <path d="M 166.145455 40.68 
L 169.527273 40.68 
L 169.527273 40.68 
L 166.145455 40.68 
L 166.145455 40.68 
z
" clip-path="url(#p2ab6dfa458)" style="fill: none; stroke: #000000; stroke-width: 0.3"/>
    <path d="M 169.527273 40.68 
L 172.909091 40.68 
L 172.909091 40.68 
L 169.527273 40.68 
L 169.527273 40.68 
z
" clip-path="url(#p2ab6dfa458)" style="fill: none; stroke: #000000; stroke-width: 0.3"/>
    <path d="M 172.909091 40.68 
L 176.290909 40.68 
L 176.290909 40.68 
L 172.909091 40.68 
L 172.909091 40.68 
z
" clip-path="url(#p2ab6dfa458)" style="fill: none; stroke: #000000; stroke-width: 0.3"/>
    <path d="M 176.290909 40.68 
L 179.672727 40.68 
L 179.672727 40.68 
L 176.290909 40.68 
L 176.290909 40.68 
z
" clip-path="url(#p2ab6dfa458)" style="fill: none; stroke: #000000; stroke-width: 0.3"/>
    <path d="M 179.672727 40.68 
L 183.054545 40.68 
L 183.054545 40.68 
L 179.672727 40.68 
L 179.672727 40.68 
z
" clip-path="url(#p2ab6dfa458)" style="fill: none; stroke: #000000; stroke-width: 0.3"/>
    <path d="M 183.054545 40.68 
L 186.436364 40.68 
L 186.436364 40.68 
L 183.054545 40.68 
L 183.054545 40.68 
z
" clip-path="url(#p2ab6dfa458)" style="fill: none; stroke: #000000; stroke-width: 0.3"/>
    <path d="M 186.436364 40.68 
L 189.818182 40.68 
L 189.818182 40.68 
L 186.436364 40.68 
L 186.436364 40.68 
z
" clip-path="url(#p2ab6dfa458)" style="fill: none; stroke: #000000; stroke-width: 0.3"/>
    <path d="M 189.818182 40.68 
L 193.2 40.68 
L 193.2 40.68 
L 189.818182 40.68 
L 189.818182 40.68 
z
" clip-path="url(#p2ab6dfa458)" style="fill: none; stroke: #000000; stroke-width: 0.3"/>
    <path d="M 193.2 40.68 
L 196.581818 40.68 
L 196.581818 40.68 
L 193.2 40.68 
L 193.2 40.68 
z
" clip-path="url(#p2ab6dfa458)" style="fill: none; stroke: #000000; stroke-width: 0.3"/>
    <path d="M 196.581818 40.68 
L 199.963636 40.68 
L 199.963636 40.68 
L 196.581818 40.68 
L 196.581818 40.68 
z
" clip-path="url(#p2ab6dfa458)" style="fill: none; stroke: #000000; stroke-width: 0.3"/>
    <path d="M 199.963636 40.68 
L 203.345455 40.68 
L 203.345455 40.68 
L 199.963636 40.68 
L 199.963636 40.68 
z
" clip-path="url(#p2ab6dfa458)" style="fill: none; stroke: #000000; stroke-width: 0.3"/>
    <path d="M 203.345455 40.68 
L 206.727273 40.68 
L 206.727273 40.68 
L 203.345455 40.68 
L 203.345455 40.68 
z
" clip-path="url(#p2ab6dfa458)" style="fill: none; stroke: #000000; stroke-width: 0.3"/>
    <path d="M 206.727273 40.68 
L 210.109091 40.68 
L 210.109091 40.68 
L 206.727273 40.68 
L 206.727273 40.68 
z
" clip-path="url(#p2ab6dfa458)" style="fill: none; stroke: #000000; stroke-width: 0.3"/>
    <path d="M 210.109091 40.68 
L 213.490909 40.68 
L 213.490909 40.68 
L 210.109091 40.68 
L 210.109091 40.68 
z
" clip-path="url(#p2ab6dfa458)" style="fill: none; stroke: #000000; stroke-width: 0.3"/>
    <path d="M 213.490909 40.68 
L 216.872727 40.68 
L 216.872727 40.68 
L 213.490909 40.68 
L 213.490909 40.68 
z
" clip-path="url(#p2ab6dfa458)" style="fill: none; stroke: #000000; stroke-width: 0.3"/>
    <path d="M 216.872727 40.68 
L 220.254545 40.68 
L 220.254545 40.68 
L 216.872727 40.68 
L 216.872727 40.68 
z
" clip-path="url(#p2ab6dfa458)" style="fill: none; stroke: #000000; stroke-width: 0.3"/>
    <path d="M 220.254545 40.68 
L 223.636364 40.68 
L 223.636364 40.68 
L 220.254545 40.68 
L 220.254545 40.68 
z
" clip-path="url(#p2ab6dfa458)" style="fill: none; stroke: #000000; stroke-width: 0.3"/>
    <path d="M 223.636364 40.68 
L 227.018182 40.68 
L 227.018182 40.68 
L 223.636364 40.68 
L 223.636364 40.68 
z
" clip-path="url(#p2ab6dfa458)" style="fill: none; stroke: #000000; stroke-width: 0.3"/>
    <path d="M 227.018182 40.68 
L 230.4 40.68 
L 230.4 40.68 
L 227.018182 40.68 
L 227.018182 40.68 
z
" clip-path="url(#p2ab6dfa458)" style="fill: none; stroke: #000000; stroke-width: 0.3"/>
    <path d="M 230.4 40.68 
L 233.781818 40.68 
L 233.781818 40.68 
L 230.4 40.68 
L 230.4 40.68 
z
" clip-path="url(#p2ab6dfa458)" style="fill: none; stroke: #000000; stroke-width: 0.3"/>
    <path d="M 233.781818 40.68 
L 237.163636 40.68 
L 237.163636 40.68 
L 233.781818 40.68 
L 233.781818 40.68 
z
" clip-path="url(#p2ab6dfa458)" style="fill: none; stroke: #000000; stroke-width: 0.3"/>
    <path d="M 237.163636 40.68 
L 240.545455 40.68 
L 240.545455 40.68 
L 237.163636 40.68 
L 237.163636 40.68 
z
" clip-path="url(#p2ab6dfa458)" style="fill: none; stroke: #000000; stroke-width: 0.3"/>
    <path d="M 240.545455 40.68 
L 243.927273 40.68 
L 243.927273 40.68 
L 240.545455 40.68 
L 240.545455 40.68 
z
" clip-path="url(#p2ab6dfa458)" style="fill: none; stroke: #000000; stroke-width: 0.3"/>
    <path d="M 243.927273 40.68 
L 247.309091 40.68 
L 247.309091 40.68 
L 243.927273 40.68 
L 243.927273 40.68 
z
" clip-path="url(#p2ab6dfa458)" style="fill: none; stroke: #000000; stroke-width: 0.3"/>
    <path d="M 247.309091 40.68 
L 250.690909 40.68 
L 250.690909 40.68 
L 247.309091 40.68 
L 247.309091 40.68 
z
" clip-path="url(#p2ab6dfa458)" style="fill: none; stroke: #000000; stroke-width: 0.3"/>
    <path d="M 250.690909 40.68 
L 254.072727 40.68 
L 254.072727 40.68 
L 250.690909 40.68 
L 250.690909 40.68 
z
" clip-path="url(#p2ab6dfa458)" style="fill: none; stroke: #000000; stroke-width: 0.3"/>
    <path d="M 254.072727 40.68 
L 257.454545 40.68 
L 257.454545 40.68 
L 254.072727 40.68 
L 254.072727 40.68 
z
" clip-path="url(#p2ab6dfa458)" style="fill: none; stroke: #000000; stroke-width: 0.3"/>
    <path d="M 257.454545 40.68 
L 260.836364 40.68 
L 260.836364 40.68 
L 257.454545 40.68 
L 257.454545 40.68 
z
" clip-path="url(#p2ab6dfa458)" style="fill: none; stroke: #000000; stroke-width: 0.3"/>
    <path d="M 260.836364 40.68 
L 264.218182 40.68 
L 264.218182 40.68 
L 260.836364 40.68 
L 260.836364 40.68 
z
" clip-path="url(#p2ab6dfa458)" style="fill: none; stroke: #000000; stroke-width: 0.3"/>
    <path d="M 264.218182 40.68 
L 267.6 40.68 
L 267.6 40.68 
L 264.218182 40.68 
L 264.218182 40.68 
z
" clip-path="url(#p2ab6dfa458)" style="fill: none; stroke: #000000; stroke-width: 0.3"/>
    <path d="M 267.6 40.68 
L 270.981818 40.68 
L 270.981818 40.68 
L 267.6 40.68 
L 267.6 40.68 
z
" clip-path="url(#p2ab6dfa458)" style="fill: none; stroke: #000000; stroke-width: 0.3"/>
    <path d="M 270.981818 40.68 
L 274.363636 40.68 
L 274.363636 40.68 
L 270.981818 40.68 
L 270.981818 40.68 
z
" clip-path="url(#p2ab6dfa458)" style="fill: none; stroke: #000000; stroke-width: 0.3"/>
    <path d="M 274.363636 40.68 
L 277.745455 40.68 
L 277.745455 40.68 
L 274.363636 40.68 
L 274.363636 40.68 
z
" clip-path="url(#p2ab6dfa458)" style="fill: none; stroke: #000000; stroke-width: 0.3"/>
    <path d="M 277.745455 40.68 
L 281.127273 40.68 
L 281.127273 40.68 
L 277.745455 40.68 
L 277.745455 40.68 
z
" clip-path="url(#p2ab6dfa458)" style="fill: none; stroke: #000000; stroke-width: 0.3"/>
    <path d="M 281.127273 40.68 
L 284.509091 40.68 
L 284.509091 40.68 
L 281.127273 40.68 
L 281.127273 40.68 
z
" clip-path="url(#p2ab6dfa458)" style="fill: none; stroke: #000000; stroke-width: 0.3"/>
    <path d="M 284.509091 40.68 
L 287.890909 40.68 
L 287.890909 40.68 
L 284.509091 40.68 
L 284.509091 40.68 
z
" clip-path="url(#p2ab6dfa458)" style="fill: none; stroke: #000000; stroke-width: 0.3"/>
    <path d="M 287.890909 40.68 
L 291.272727 40.68 
L 291.272727 40.68 
L 287.890909 40.68 
L 287.890909 40.68 
z
" clip-path="url(#p2ab6dfa458)" style="fill: none; stroke: #000000; stroke-width: 0.3"/>
    <path d="M 291.272727 40.68 
L 294.654545 40.68 
L 294.654545 40.68 
L 291.272727 40.68 
L 291.272727 40.68 
z
" clip-path="url(#p2ab6dfa458)" style="fill: none; stroke: #000000; stroke-width: 0.3"/>
    <path d="M 294.654545 40.68 
L 298.036364 40.68 
L 298.036364 40.68 
L 294.654545 40.68 
L 294.654545 40.68 
z
" clip-path="url(#p2ab6dfa458)" style="fill: none; stroke: #000000; stroke-width: 0.3"/>
    <path d="M 298.036364 40.68 
L 301.418182 40.68 
L 301.418182 40.68 
L 298.036364 40.68 
L 298.036364 40.68 
z
" clip-path="url(#p2ab6dfa458)" style="fill: none; stroke: #000000; stroke-width: 0.3"/>
    <path d="M 301.418182 40.68 
L 304.8 40.68 
L 304.8 40.68 
L 301.418182 40.68 
L 301.418182 40.68 
z
" clip-path="url(#p2ab6dfa458)" style="fill: none; stroke: #000000; stroke-width: 0.3"/>
    <path d="M 304.8 40.68 
L 308.181818 40.68 
L 308.181818 40.68 
L 304.8 40.68 
L 304.8 40.68 
z
" clip-path="url(#p2ab6dfa458)" style="fill: none; stroke: #000000; stroke-width: 0.3"/>
    <path d="M 308.181818 40.68 
L 311.563636 40.68 
L 311.563636 40.68 
L 308.181818 40.68 
L 308.181818 40.68 
z
" clip-path="url(#p2ab6dfa458)" style="fill: none; stroke: #000000; stroke-width: 0.3"/>
    <path d="M 311.563636 40.68 
L 314.945455 40.68 
L 314.945455 40.68 
L 311.563636 40.68 
L 311.563636 40.68 
z
" clip-path="url(#p2ab6dfa458)" style="fill: none; stroke: #000000; stroke-width: 0.3"/>
    <path d="M 314.945455 40.68 
L 318.327273 40.68 
L 318.327273 40.68 
L 314.945455 40.68 
L 314.945455 40.68 
z
" clip-path="url(#p2ab6dfa458)" style="fill: none; stroke: #000000; stroke-width: 0.3"/>
    <path d="M 318.327273 40.68 
L 321.709091 40.68 
L 321.709091 40.68 
L 318.327273 40.68 
L 318.327273 40.68 
z
" clip-path="url(#p2ab6dfa458)" style="fill: none; stroke: #000000; stroke-width: 0.3"/>
    <path d="M 321.709091 40.68 
L 325.090909 40.68 
L 325.090909 40.68 
L 321.709091 40.68 
L 321.709091 40.68 
z
" clip-path="url(#p2ab6dfa458)" style="fill: none; stroke: #000000; stroke-width: 0.3"/>
    <path d="M 325.090909 40.68 
L 328.472727 40.68 
L 328.472727 40.68 
L 325.090909 40.68 
L 325.090909 40.68 
z
" clip-path="url(#p2ab6dfa458)" style="fill: none; stroke: #000000; stroke-width: 0.3"/>
    <path d="M 328.472727 40.68 
L 331.854545 40.68 
L 331.854545 40.68 
L 328.472727 40.68 
L 328.472727 40.68 
z
" clip-path="url(#p2ab6dfa458)" style="fill: none; stroke: #000000; stroke-width: 0.3"/>
    <path d="M 331.854545 40.68 
L 335.236364 40.68 
L 335.236364 40.68 
L 331.854545 40.68 
L 331.854545 40.68 
z
" clip-path="url(#p2ab6dfa458)" style="fill: none; stroke: #000000; stroke-width: 0.3"/>
    <path d="M 335.236364 40.68 
L 338.618182 40.68 
L 338.618182 40.68 
L 335.236364 40.68 
L 335.236364 40.68 
z
" clip-path="url(#p2ab6dfa458)" style="fill: none; stroke: #000000; stroke-width: 0.3"/>
    <path d="M 338.618182 40.68 
L 342 40.68 
L 342 40.68 
L 338.618182 40.68 
L 338.618182 40.68 
z
" clip-path="url(#p2ab6dfa458)" style="fill: none; stroke: #000000; stroke-width: 0.3"/>
   </g>
   <g id="PolyCollection_2">
    <path d="M 7.2 7.2 
L 10.581818 7.2 
L 10.581818 7.2 
L 7.2 7.2 
L 7.2 7.2 
z
" clip-path="url(#p2ab6dfa458)" style="fill: none; stroke: #000000; stroke-width: 0.3"/>
    <path d="M 10.581818 7.2 
L 13.963636 7.2 
L 13.963636 7.2 
L 10.581818 7.2 
L 10.581818 7.2 
z
" clip-path="url(#p2ab6dfa458)" style="fill: none; stroke: #000000; stroke-width: 0.3"/>
    <path d="M 13.963636 7.2 
L 17.345455 7.2 
L 17.345455 7.2 
L 13.963636 7.2 
L 13.963636 7.2 
z
" clip-path="url(#p2ab6dfa458)" style="fill: none; stroke: #000000; stroke-width: 0.3"/>
    <path d="M 17.345455 7.2 
L 20.727273 7.2 
L 20.727273 7.2 
L 17.345455 7.2 
L 17.345455 7.2 
z
" clip-path="url(#p2ab6dfa458)" style="fill: none; stroke: #000000; stroke-width: 0.3"/>
    <path d="M 20.727273 7.2 
L 24.109091 7.2 
L 24.109091 7.2 
L 20.727273 7.2 
L 20.727273 7.2 
z
" clip-path="url(#p2ab6dfa458)" style="fill: none; stroke: #000000; stroke-width: 0.3"/>
    <path d="M 24.109091 7.2 
L 27.490909 7.2 
L 27.490909 7.2 
L 24.109091 7.2 
L 24.109091 7.2 
z
" clip-path="url(#p2ab6dfa458)" style="fill: none; stroke: #000000; stroke-width: 0.3"/>
    <path d="M 27.490909 7.2 
L 30.872727 7.2 
L 30.872727 7.2 
L 27.490909 7.2 
L 27.490909 7.2 
z
" clip-path="url(#p2ab6dfa458)" style="fill: none; stroke: #000000; stroke-width: 0.3"/>
    <path d="M 30.872727 7.2 
L 34.254545 7.2 
L 34.254545 7.2 
L 30.872727 7.2 
L 30.872727 7.2 
z
" clip-path="url(#p2ab6dfa458)" style="fill: none; stroke: #000000; stroke-width: 0.3"/>
    <path d="M 34.254545 7.2 
L 37.636364 7.2 
L 37.636364 7.2 
L 34.254545 7.2 
L 34.254545 7.2 
z
" clip-path="url(#p2ab6dfa458)" style="fill: none; stroke: #000000; stroke-width: 0.3"/>
    <path d="M 37.636364 7.2 
L 41.018182 7.2 
L 41.018182 7.2 
L 37.636364 7.2 
L 37.636364 7.2 
z
" clip-path="url(#p2ab6dfa458)" style="fill: none; stroke: #000000; stroke-width: 0.3"/>
    <path d="M 41.018182 7.2 
L 44.4 7.2 
L 44.4 7.2 
L 41.018182 7.2 
L 41.018182 7.2 
z
" clip-path="url(#p2ab6dfa458)" style="fill: none; stroke: #000000; stroke-width: 0.3"/>
    <path d="M 44.4 7.2 
L 47.781818 7.2 
L 47.781818 7.2 
L 44.4 7.2 
L 44.4 7.2 
z
" clip-path="url(#p2ab6dfa458)" style="fill: none; stroke: #000000; stroke-width: 0.3"/>
    <path d="M 47.781818 7.2 
L 51.163636 7.2 
L 51.163636 7.2 
L 47.781818 7.2 
L 47.781818 7.2 
z
" clip-path="url(#p2ab6dfa458)" style="fill: none; stroke: #000000; stroke-width: 0.3"/>
    <path d="M 51.163636 7.2 
L 54.545455 7.2 
L 54.545455 7.2 
L 51.163636 7.2 
L 51.163636 7.2 
z
" clip-path="url(#p2ab6dfa458)" style="fill: none; stroke: #000000; stroke-width: 0.3"/>
    <path d="M 54.545455 7.2 
L 57.927273 7.2 
L 57.927273 7.2 
L 54.545455 7.2 
L 54.545455 7.2 
z
" clip-path="url(#p2ab6dfa458)" style="fill: none; stroke: #000000; stroke-width: 0.3"/>
    <path d="M 57.927273 7.2 
L 61.309091 7.2 
L 61.309091 7.2 
L 57.927273 7.2 
L 57.927273 7.2 
z
" clip-path="url(#p2ab6dfa458)" style="fill: none; stroke: #000000; stroke-width: 0.3"/>
    <path d="M 61.309091 7.2 
L 64.690909 7.2 
L 64.690909 7.2 
L 61.309091 7.2 
L 61.309091 7.2 
z
" clip-path="url(#p2ab6dfa458)" style="fill: none; stroke: #000000; stroke-width: 0.3"/>
    <path d="M 64.690909 7.2 
L 68.072727 7.2 
L 68.072727 7.2 
L 64.690909 7.2 
L 64.690909 7.2 
z
" clip-path="url(#p2ab6dfa458)" style="fill: none; stroke: #000000; stroke-width: 0.3"/>
    <path d="M 68.072727 7.2 
L 71.454545 7.2 
L 71.454545 7.2 
L 68.072727 7.2 
L 68.072727 7.2 
z
" clip-path="url(#p2ab6dfa458)" style="fill: none; stroke: #000000; stroke-width: 0.3"/>
    <path d="M 71.454545 7.2 
L 74.836364 7.2 
L 74.836364 7.2 
L 71.454545 7.2 
L 71.454545 7.2 
z
" clip-path="url(#p2ab6dfa458)" style="fill: none; stroke: #000000; stroke-width: 0.3"/>
    <path d="M 74.836364 7.2 
L 78.218182 7.2 
L 78.218182 7.2 
L 74.836364 7.2 
L 74.836364 7.2 
z
" clip-path="url(#p2ab6dfa458)" style="fill: none; stroke: #000000; stroke-width: 0.3"/>
    <path d="M 78.218182 7.2 
L 81.6 7.2 
L 81.6 7.2 
L 78.218182 7.2 
L 78.218182 7.2 
z
" clip-path="url(#p2ab6dfa458)" style="fill: none; stroke: #000000; stroke-width: 0.3"/>
    <path d="M 81.6 7.2 
L 84.981818 7.2 
L 84.981818 7.2 
L 81.6 7.2 
L 81.6 7.2 
z
" clip-path="url(#p2ab6dfa458)" style="fill: none; stroke: #000000; stroke-width: 0.3"/>
    <path d="M 84.981818 7.2 
L 88.363636 7.2 
L 88.363636 7.2 
L 84.981818 7.2 
L 84.981818 7.2 
z
" clip-path="url(#p2ab6dfa458)" style="fill: none; stroke: #000000; stroke-width: 0.3"/>
    <path d="M 88.363636 7.2 
L 91.745455 7.2 
L 91.745455 7.2 
L 88.363636 7.2 
L 88.363636 7.2 
z
" clip-path="url(#p2ab6dfa458)" style="fill: none; stroke: #000000; stroke-width: 0.3"/>
    <path d="M 91.745455 7.2 
L 95.127273 7.2 
L 95.127273 7.2 
L 91.745455 7.2 
L 91.745455 7.2 
z
" clip-path="url(#p2ab6dfa458)" style="fill: none; stroke: #000000; stroke-width: 0.3"/>
    <path d="M 95.127273 7.2 
L 98.509091 7.2 
L 98.509091 7.2 
L 95.127273 7.2 
L 95.127273 7.2 
z
" clip-path="url(#p2ab6dfa458)" style="fill: none; stroke: #000000; stroke-width: 0.3"/>
    <path d="M 98.509091 7.2 
L 101.890909 7.2 
L 101.890909 7.2 
L 98.509091 7.2 
L 98.509091 7.2 
z
" clip-path="url(#p2ab6dfa458)" style="fill: none; stroke: #000000; stroke-width: 0.3"/>
    <path d="M 101.890909 7.2 
L 105.272727 7.2 
L 105.272727 7.2 
L 101.890909 7.2 
L 101.890909 7.2 
z
" clip-path="url(#p2ab6dfa458)" style="fill: none; stroke: #000000; stroke-width: 0.3"/>
    <path d="M 105.272727 7.2 
L 108.654545 7.2 
L 108.654545 7.2 
L 105.272727 7.2 
L 105.272727 7.2 
z
" clip-path="url(#p2ab6dfa458)" style="fill: none; stroke: #000000; stroke-width: 0.3"/>
    <path d="M 108.654545 7.2 
L 112.036364 7.2 
L 112.036364 7.2 
L 108.654545 7.2 
L 108.654545 7.2 
z
" clip-path="url(#p2ab6dfa458)" style="fill: none; stroke: #000000; stroke-width: 0.3"/>
    <path d="M 112.036364 7.2 
L 115.418182 7.2 
L 115.418182 7.2 
L 112.036364 7.2 
L 112.036364 7.2 
z
" clip-path="url(#p2ab6dfa458)" style="fill: none; stroke: #000000; stroke-width: 0.3"/>
    <path d="M 115.418182 7.2 
L 118.8 7.2 
L 118.8 7.2 
L 115.418182 7.2 
L 115.418182 7.2 
z
" clip-path="url(#p2ab6dfa458)" style="fill: none; stroke: #000000; stroke-width: 0.3"/>
    <path d="M 118.8 7.2 
L 122.181818 7.2 
L 122.181818 7.2 
L 118.8 7.2 
L 118.8 7.2 
z
" clip-path="url(#p2ab6dfa458)" style="fill: none; stroke: #000000; stroke-width: 0.3"/>
    <path d="M 122.181818 7.2 
L 125.563636 7.2 
L 125.563636 7.2 
L 122.181818 7.2 
L 122.181818 7.2 
z
" clip-path="url(#p2ab6dfa458)" style="fill: none; stroke: #000000; stroke-width: 0.3"/>
    <path d="M 125.563636 7.2 
L 128.945455 7.2 
L 128.945455 7.2 
L 125.563636 7.2 
L 125.563636 7.2 
z
" clip-path="url(#p2ab6dfa458)" style="fill: none; stroke: #000000; stroke-width: 0.3"/>
    <path d="M 128.945455 7.2 
L 132.327273 7.2 
L 132.327273 7.2 
L 128.945455 7.2 
L 128.945455 7.2 
z
" clip-path="url(#p2ab6dfa458)" style="fill: none; stroke: #000000; stroke-width: 0.3"/>
    <path d="M 132.327273 7.2 
L 135.709091 7.2 
L 135.709091 7.2 
L 132.327273 7.2 
L 132.327273 7.2 
z
" clip-path="url(#p2ab6dfa458)" style="fill: none; stroke: #000000; stroke-width: 0.3"/>
    <path d="M 135.709091 7.2 
L 139.090909 7.2 
L 139.090909 7.2 
L 135.709091 7.2 
L 135.709091 7.2 
z
" clip-path="url(#p2ab6dfa458)" style="fill: none; stroke: #000000; stroke-width: 0.3"/>
    <path d="M 139.090909 7.2 
L 142.472727 7.2 
L 142.472727 7.2 
L 139.090909 7.2 
L 139.090909 7.2 
z
" clip-path="url(#p2ab6dfa458)" style="fill: none; stroke: #000000; stroke-width: 0.3"/>
    <path d="M 142.472727 7.2 
L 145.854545 7.2 
L 145.854545 7.2 
L 142.472727 7.2 
L 142.472727 7.2 
z
" clip-path="url(#p2ab6dfa458)" style="fill: none; stroke: #000000; stroke-width: 0.3"/>
    <path d="M 145.854545 7.2 
L 149.236364 7.2 
L 149.236364 7.2 
L 145.854545 7.2 
L 145.854545 7.2 
z
" clip-path="url(#p2ab6dfa458)" style="fill: none; stroke: #000000; stroke-width: 0.3"/>
    <path d="M 149.236364 7.2 
L 152.618182 7.2 
L 152.618182 7.2 
L 149.236364 7.2 
L 149.236364 7.2 
z
" clip-path="url(#p2ab6dfa458)" style="fill: none; stroke: #000000; stroke-width: 0.3"/>
    <path d="M 152.618182 7.2 
L 156 7.2 
L 156 7.2 
L 152.618182 7.2 
L 152.618182 7.2 
z
" clip-path="url(#p2ab6dfa458)" style="fill: none; stroke: #000000; stroke-width: 0.3"/>
    <path d="M 156 7.2 
L 159.381818 7.2 
L 159.381818 7.2 
L 156 7.2 
L 156 7.2 
z
" clip-path="url(#p2ab6dfa458)" style="fill: none; stroke: #000000; stroke-width: 0.3"/>
    <path d="M 159.381818 7.2 
L 162.763636 7.2 
L 162.763636 7.2 
L 159.381818 7.2 
L 159.381818 7.2 
z
" clip-path="url(#p2ab6dfa458)" style="fill: none; stroke: #000000; stroke-width: 0.3"/>
    <path d="M 162.763636 7.2 
L 166.145455 7.2 
L 166.145455 7.2 
L 162.763636 7.2 
L 162.763636 7.2 
z
" clip-path="url(#p2ab6dfa458)" style="fill: none; stroke: #000000; stroke-width: 0.3"/>
    <path d="M 166.145455 7.2 
L 169.527273 7.2 
L 169.527273 7.2 
L 166.145455 7.2 
L 166.145455 7.2 
z
" clip-path="url(#p2ab6dfa458)" style="fill: none; stroke: #000000; stroke-width: 0.3"/>
    <path d="M 169.527273 7.2 
L 172.909091 7.2 
L 172.909091 7.2 
L 169.527273 7.2 
L 169.527273 7.2 
z
" clip-path="url(#p2ab6dfa458)" style="fill: none; stroke: #000000; stroke-width: 0.3"/>
    <path d="M 172.909091 7.2 
L 176.290909 7.2 
L 176.290909 7.2 
L 172.909091 7.2 
L 172.909091 7.2 
z
" clip-path="url(#p2ab6dfa458)" style="fill: none; stroke: #000000; stroke-width: 0.3"/>
    <path d="M 176.290909 7.2 
L 179.672727 7.2 
L 179.672727 7.2 
L 176.290909 7.2 
L 176.290909 7.2 
z
" clip-path="url(#p2ab6dfa458)" style="fill: none; stroke: #000000; stroke-width: 0.3"/>
    <path d="M 179.672727 7.2 
L 183.054545 7.2 
L 183.054545 7.2 
L 179.672727 7.2 
L 179.672727 7.2 
z
" clip-path="url(#p2ab6dfa458)" style="fill: none; stroke: #000000; stroke-width: 0.3"/>
    <path d="M 183.054545 7.2 
L 186.436364 7.2 
L 186.436364 7.2 
L 183.054545 7.2 
L 183.054545 7.2 
z
" clip-path="url(#p2ab6dfa458)" style="fill: none; stroke: #000000; stroke-width: 0.3"/>
    <path d="M 186.436364 7.2 
L 189.818182 7.2 
L 189.818182 7.2 
L 186.436364 7.2 
L 186.436364 7.2 
z
" clip-path="url(#p2ab6dfa458)" style="fill: none; stroke: #000000; stroke-width: 0.3"/>
    <path d="M 189.818182 7.2 
L 193.2 7.2 
L 193.2 7.2 
L 189.818182 7.2 
L 189.818182 7.2 
z
" clip-path="url(#p2ab6dfa458)" style="fill: none; stroke: #000000; stroke-width: 0.3"/>
    <path d="M 193.2 7.2 
L 196.581818 7.2 
L 196.581818 7.2 
L 193.2 7.2 
L 193.2 7.2 
z
" clip-path="url(#p2ab6dfa458)" style="fill: none; stroke: #000000; stroke-width: 0.3"/>
    <path d="M 196.581818 7.2 
L 199.963636 7.2 
L 199.963636 7.2 
L 196.581818 7.2 
L 196.581818 7.2 
z
" clip-path="url(#p2ab6dfa458)" style="fill: none; stroke: #000000; stroke-width: 0.3"/>
    <path d="M 199.963636 7.2 
L 203.345455 7.2 
L 203.345455 7.2 
L 199.963636 7.2 
L 199.963636 7.2 
z
" clip-path="url(#p2ab6dfa458)" style="fill: none; stroke: #000000; stroke-width: 0.3"/>
    <path d="M 203.345455 7.2 
L 206.727273 7.2 
L 206.727273 7.2 
L 203.345455 7.2 
L 203.345455 7.2 
z
" clip-path="url(#p2ab6dfa458)" style="fill: none; stroke: #000000; stroke-width: 0.3"/>
    <path d="M 206.727273 7.2 
L 210.109091 7.2 
L 210.109091 7.2 
L 206.727273 7.2 
L 206.727273 7.2 
z
" clip-path="url(#p2ab6dfa458)" style="fill: none; stroke: #000000; stroke-width: 0.3"/>
    <path d="M 210.109091 7.2 
L 213.490909 7.2 
L 213.490909 7.2 
L 210.109091 7.2 
L 210.109091 7.2 
z
" clip-path="url(#p2ab6dfa458)" style="fill: none; stroke: #000000; stroke-width: 0.3"/>
    <path d="M 213.490909 7.2 
L 216.872727 7.2 
L 216.872727 7.2 
L 213.490909 7.2 
L 213.490909 7.2 
z
" clip-path="url(#p2ab6dfa458)" style="fill: none; stroke: #000000; stroke-width: 0.3"/>
    <path d="M 216.872727 7.2 
L 220.254545 7.2 
L 220.254545 7.2 
L 216.872727 7.2 
L 216.872727 7.2 
z
" clip-path="url(#p2ab6dfa458)" style="fill: none; stroke: #000000; stroke-width: 0.3"/>
    <path d="M 220.254545 7.2 
L 223.636364 7.2 
L 223.636364 7.2 
L 220.254545 7.2 
L 220.254545 7.2 
z
" clip-path="url(#p2ab6dfa458)" style="fill: none; stroke: #000000; stroke-width: 0.3"/>
    <path d="M 223.636364 7.2 
L 227.018182 7.2 
L 227.018182 7.2 
L 223.636364 7.2 
L 223.636364 7.2 
z
" clip-path="url(#p2ab6dfa458)" style="fill: none; stroke: #000000; stroke-width: 0.3"/>
    <path d="M 227.018182 7.2 
L 230.4 7.2 
L 230.4 7.2 
L 227.018182 7.2 
L 227.018182 7.2 
z
" clip-path="url(#p2ab6dfa458)" style="fill: none; stroke: #000000; stroke-width: 0.3"/>
    <path d="M 230.4 7.2 
L 233.781818 7.2 
L 233.781818 7.2 
L 230.4 7.2 
L 230.4 7.2 
z
" clip-path="url(#p2ab6dfa458)" style="fill: none; stroke: #000000; stroke-width: 0.3"/>
    <path d="M 233.781818 7.2 
L 237.163636 7.2 
L 237.163636 7.2 
L 233.781818 7.2 
L 233.781818 7.2 
z
" clip-path="url(#p2ab6dfa458)" style="fill: none; stroke: #000000; stroke-width: 0.3"/>
    <path d="M 237.163636 7.2 
L 240.545455 7.2 
L 240.545455 7.2 
L 237.163636 7.2 
L 237.163636 7.2 
z
" clip-path="url(#p2ab6dfa458)" style="fill: none; stroke: #000000; stroke-width: 0.3"/>
    <path d="M 240.545455 7.2 
L 243.927273 7.2 
L 243.927273 7.2 
L 240.545455 7.2 
L 240.545455 7.2 
z
" clip-path="url(#p2ab6dfa458)" style="fill: none; stroke: #000000; stroke-width: 0.3"/>
    <path d="M 243.927273 7.2 
L 247.309091 7.2 
L 247.309091 7.2 
L 243.927273 7.2 
L 243.927273 7.2 
z
" clip-path="url(#p2ab6dfa458)" style="fill: none; stroke: #000000; stroke-width: 0.3"/>
    <path d="M 247.309091 7.2 
L 250.690909 7.2 
L 250.690909 7.2 
L 247.309091 7.2 
L 247.309091 7.2 
z
" clip-path="url(#p2ab6dfa458)" style="fill: none; stroke: #000000; stroke-width: 0.3"/>
    <path d="M 250.690909 7.2 
L 254.072727 7.2 
L 254.072727 7.2 
L 250.690909 7.2 
L 250.690909 7.2 
z
" clip-path="url(#p2ab6dfa458)" style="fill: none; stroke: #000000; stroke-width: 0.3"/>
    <path d="M 254.072727 7.2 
L 257.454545 7.2 
L 257.454545 7.2 
L 254.072727 7.2 
L 254.072727 7.2 
z
" clip-path="url(#p2ab6dfa458)" style="fill: none; stroke: #000000; stroke-width: 0.3"/>
    <path d="M 257.454545 7.2 
L 260.836364 7.2 
L 260.836364 7.2 
L 257.454545 7.2 
L 257.454545 7.2 
z
" clip-path="url(#p2ab6dfa458)" style="fill: none; stroke: #000000; stroke-width: 0.3"/>
    <path d="M 260.836364 7.2 
L 264.218182 7.2 
L 264.218182 7.2 
L 260.836364 7.2 
L 260.836364 7.2 
z
" clip-path="url(#p2ab6dfa458)" style="fill: none; stroke: #000000; stroke-width: 0.3"/>
    <path d="M 264.218182 7.2 
L 267.6 7.2 
L 267.6 7.2 
L 264.218182 7.2 
L 264.218182 7.2 
z
" clip-path="url(#p2ab6dfa458)" style="fill: none; stroke: #000000; stroke-width: 0.3"/>
    <path d="M 267.6 7.2 
L 270.981818 7.2 
L 270.981818 7.2 
L 267.6 7.2 
L 267.6 7.2 
z
" clip-path="url(#p2ab6dfa458)" style="fill: none; stroke: #000000; stroke-width: 0.3"/>
    <path d="M 270.981818 7.2 
L 274.363636 7.2 
L 274.363636 7.2 
L 270.981818 7.2 
L 270.981818 7.2 
z
" clip-path="url(#p2ab6dfa458)" style="fill: none; stroke: #000000; stroke-width: 0.3"/>
    <path d="M 274.363636 7.2 
L 277.745455 7.2 
L 277.745455 7.2 
L 274.363636 7.2 
L 274.363636 7.2 
z
" clip-path="url(#p2ab6dfa458)" style="fill: none; stroke: #000000; stroke-width: 0.3"/>
    <path d="M 277.745455 7.2 
L 281.127273 7.2 
L 281.127273 7.2 
L 277.745455 7.2 
L 277.745455 7.2 
z
" clip-path="url(#p2ab6dfa458)" style="fill: none; stroke: #000000; stroke-width: 0.3"/>
    <path d="M 281.127273 7.2 
L 284.509091 7.2 
L 284.509091 7.2 
L 281.127273 7.2 
L 281.127273 7.2 
z
" clip-path="url(#p2ab6dfa458)" style="fill: none; stroke: #000000; stroke-width: 0.3"/>
    <path d="M 284.509091 7.2 
L 287.890909 7.2 
L 287.890909 7.2 
L 284.509091 7.2 
L 284.509091 7.2 
z
" clip-path="url(#p2ab6dfa458)" style="fill: none; stroke: #000000; stroke-width: 0.3"/>
    <path d="M 287.890909 7.2 
L 291.272727 7.2 
L 291.272727 7.2 
L 287.890909 7.2 
L 287.890909 7.2 
z
" clip-path="url(#p2ab6dfa458)" style="fill: none; stroke: #000000; stroke-width: 0.3"/>
    <path d="M 291.272727 7.2 
L 294.654545 7.2 
L 294.654545 7.2 
L 291.272727 7.2 
L 291.272727 7.2 
z
" clip-path="url(#p2ab6dfa458)" style="fill: none; stroke: #000000; stroke-width: 0.3"/>
    <path d="M 294.654545 7.2 
L 298.036364 7.2 
L 298.036364 7.2 
L 294.654545 7.2 
L 294.654545 7.2 
z
" clip-path="url(#p2ab6dfa458)" style="fill: none; stroke: #000000; stroke-width: 0.3"/>
    <path d="M 298.036364 7.2 
L 301.418182 7.2 
L 301.418182 7.2 
L 298.036364 7.2 
L 298.036364 7.2 
z
" clip-path="url(#p2ab6dfa458)" style="fill: none; stroke: #000000; stroke-width: 0.3"/>
    <path d="M 301.418182 7.2 
L 304.8 7.2 
L 304.8 7.2 
L 301.418182 7.2 
L 301.418182 7.2 
z
" clip-path="url(#p2ab6dfa458)" style="fill: none; stroke: #000000; stroke-width: 0.3"/>
    <path d="M 304.8 7.2 
L 308.181818 7.2 
L 308.181818 7.2 
L 304.8 7.2 
L 304.8 7.2 
z
" clip-path="url(#p2ab6dfa458)" style="fill: none; stroke: #000000; stroke-width: 0.3"/>
    <path d="M 308.181818 7.2 
L 311.563636 7.2 
L 311.563636 7.2 
L 308.181818 7.2 
L 308.181818 7.2 
z
" clip-path="url(#p2ab6dfa458)" style="fill: none; stroke: #000000; stroke-width: 0.3"/>
    <path d="M 311.563636 7.2 
L 314.945455 7.2 
L 314.945455 7.2 
L 311.563636 7.2 
L 311.563636 7.2 
z
" clip-path="url(#p2ab6dfa458)" style="fill: none; stroke: #000000; stroke-width: 0.3"/>
    <path d="M 314.945455 7.2 
L 318.327273 7.2 
L 318.327273 7.2 
L 314.945455 7.2 
L 314.945455 7.2 
z
" clip-path="url(#p2ab6dfa458)" style="fill: none; stroke: #000000; stroke-width: 0.3"/>
    <path d="M 318.327273 7.2 
L 321.709091 7.2 
L 321.709091 7.2 
L 318.327273 7.2 
L 318.327273 7.2 
z
" clip-path="url(#p2ab6dfa458)" style="fill: none; stroke: #000000; stroke-width: 0.3"/>
    <path d="M 321.709091 7.2 
L 325.090909 7.2 
L 325.090909 7.2 
L 321.709091 7.2 
L 321.709091 7.2 
z
" clip-path="url(#p2ab6dfa458)" style="fill: none; stroke: #000000; stroke-width: 0.3"/>
    <path d="M 325.090909 7.2 
L 328.472727 7.2 
L 328.472727 7.2 
L 325.090909 7.2 
L 325.090909 7.2 
z
" clip-path="url(#p2ab6dfa458)" style="fill: none; stroke: #000000; stroke-width: 0.3"/>
    <path d="M 328.472727 7.2 
L 331.854545 7.2 
L 331.854545 7.2 
L 328.472727 7.2 
L 328.472727 7.2 
z
" clip-path="url(#p2ab6dfa458)" style="fill: none; stroke: #000000; stroke-width: 0.3"/>
    <path d="M 331.854545 7.2 
L 335.236364 7.2 
L 335.236364 7.2 
L 331.854545 7.2 
L 331.854545 7.2 
z
" clip-path="url(#p2ab6dfa458)" style="fill: none; stroke: #000000; stroke-width: 0.3"/>
    <path d="M 335.236364 7.2 
L 338.618182 7.2 
L 338.618182 7.2 
L 335.236364 7.2 
L 335.236364 7.2 
z
" clip-path="url(#p2ab6dfa458)" style="fill: none; stroke: #000000; stroke-width: 0.3"/>
    <path d="M 338.618182 7.2 
L 342 7.2 
L 342 7.2 
L 338.618182 7.2 
L 338.618182 7.2 
z
" clip-path="url(#p2ab6dfa458)" style="fill: none; stroke: #000000; stroke-width: 0.3"/>
   </g>
   <g id="PolyCollection_3">
    <path d="M 7.2 40.68 
L 7.2 36.96 
L 7.2 36.96 
L 7.2 40.68 
L 7.2 40.68 
z
" clip-path="url(#p2ab6dfa458)" style="fill: none; stroke: #000000; stroke-width: 0.3"/>
    <path d="M 7.2 36.96 
L 7.2 33.24 
L 7.2 33.24 
L 7.2 36.96 
L 7.2 36.96 
z
" clip-path="url(#p2ab6dfa458)" style="fill: none; stroke: #000000; stroke-width: 0.3"/>
    <path d="M 7.2 33.24 
L 7.2 29.52 
L 7.2 29.52 
L 7.2 33.24 
L 7.2 33.24 
z
" clip-path="url(#p2ab6dfa458)" style="fill: none; stroke: #000000; stroke-width: 0.3"/>
    <path d="M 7.2 29.52 
L 7.2 25.8 
L 7.2 25.8 
L 7.2 29.52 
L 7.2 29.52 
z
" clip-path="url(#p2ab6dfa458)" style="fill: none; stroke: #000000; stroke-width: 0.3"/>
    <path d="M 7.2 25.8 
L 7.2 22.08 
L 7.2 22.08 
L 7.2 25.8 
L 7.2 25.8 
z
" clip-path="url(#p2ab6dfa458)" style="fill: none; stroke: #000000; stroke-width: 0.3"/>
    <path d="M 7.2 22.08 
L 7.2 18.36 
L 7.2 18.36 
L 7.2 22.08 
L 7.2 22.08 
z
" clip-path="url(#p2ab6dfa458)" style="fill: none; stroke: #000000; stroke-width: 0.3"/>
    <path d="M 7.2 18.36 
L 7.2 14.64 
L 7.2 14.64 
L 7.2 18.36 
L 7.2 18.36 
z
" clip-path="url(#p2ab6dfa458)" style="fill: none; stroke: #000000; stroke-width: 0.3"/>
    <path d="M 7.2 14.64 
L 7.2 10.92 
L 7.2 10.92 
L 7.2 14.64 
L 7.2 14.64 
z
" clip-path="url(#p2ab6dfa458)" style="fill: none; stroke: #000000; stroke-width: 0.3"/>
    <path d="M 7.2 10.92 
L 7.2 7.2 
L 7.2 7.2 
L 7.2 10.92 
L 7.2 10.92 
z
" clip-path="url(#p2ab6dfa458)" style="fill: none; stroke: #000000; stroke-width: 0.3"/>
   </g>
   <g id="PolyCollection_4">
    <path d="M 342 40.68 
L 342 36.96 
L 342 36.96 
L 342 40.68 
L 342 40.68 
z
" clip-path="url(#p2ab6dfa458)" style="fill: none; stroke: #000000; stroke-width: 0.3"/>
    <path d="M 342 36.96 
L 342 33.24 
L 342 33.24 
L 342 36.96 
L 342 36.96 
z
" clip-path="url(#p2ab6dfa458)" style="fill: none; stroke: #000000; stroke-width: 0.3"/>
    <path d="M 342 33.24 
L 342 29.52 
L 342 29.52 
L 342 33.24 
L 342 33.24 
z
" clip-path="url(#p2ab6dfa458)" style="fill: none; stroke: #000000; stroke-width: 0.3"/>
    <path d="M 342 29.52 
L 342 25.8 
L 342 25.8 
L 342 29.52 
L 342 29.52 
z
" clip-path="url(#p2ab6dfa458)" style="fill: none; stroke: #000000; stroke-width: 0.3"/>
    <path d="M 342 25.8 
L 342 22.08 
L 342 22.08 
L 342 25.8 
L 342 25.8 
z
" clip-path="url(#p2ab6dfa458)" style="fill: none; stroke: #000000; stroke-width: 0.3"/>
    <path d="M 342 22.08 
L 342 18.36 
L 342 18.36 
L 342 22.08 
L 342 22.08 
z
" clip-path="url(#p2ab6dfa458)" style="fill: none; stroke: #000000; stroke-width: 0.3"/>
    <path d="M 342 18.36 
L 342 14.64 
L 342 14.64 
L 342 18.36 
L 342 18.36 
z
" clip-path="url(#p2ab6dfa458)" style="fill: none; stroke: #000000; stroke-width: 0.3"/>
    <path d="M 342 14.64 
L 342 10.92 
L 342 10.92 
L 342 14.64 
L 342 14.64 
z
" clip-path="url(#p2ab6dfa458)" style="fill: none; stroke: #000000; stroke-width: 0.3"/>
    <path d="M 342 10.92 
L 342 7.2 
L 342 7.2 
L 342 10.92 
L 342 10.92 
z
" clip-path="url(#p2ab6dfa458)" style="fill: none; stroke: #000000; stroke-width: 0.3"/>
   </g>
  </g>
 </g>
 <defs>
  <clipPath id="p2ab6dfa458">
   <rect x="7.2" y="7.2" width="334.8" height="33.48"/>
  </clipPath>
 </defs>
</svg>
